<svg width="24" height="24" viewBox="0 0 24 24" fill="none" xmlns="http://www.w3.org/2000/svg">
<path d="M5.25 16.125H15.75C15.75 16.125 18 19.5 19.875 19.125C19.5 17.625 19.2488 16.125 19.2488 16.125H21.75C22.0484 16.125 22.3345 16.0065 22.5455 15.7955C22.7565 15.5845 22.875 15.2984 22.875 15V3.75C22.875 3.45163 22.7565 3.16548 22.5455 2.9545C22.3345 2.74353 22.0484 2.625 21.75 2.625H5.25C4.95163 2.625 4.66548 2.74353 4.4545 2.9545C4.24353 3.16548 4.125 3.45163 4.125 3.75V15C4.125 15.2984 4.24353 15.5845 4.4545 15.7955C4.66548 16.0065 4.95163 16.125 5.25 16.125Z" fill="#FF8E5A"/>
<path d="M6.99375 6L7.21125 6.40125L7.6125 6.61875L7.21125 6.83625L6.99375 7.2375L6.77625 6.83625L6.375 6.61875L6.77625 6.40125L6.99375 6Z" fill="#FFF8F8"/>
<path d="M16.125 16.125L22.71 9.54L22.5 4.5L10.875 16.125H16.125ZM7.5 16.5L6.75 16.125L20.25 2.625H21.9375L22.2675 3.07125L7.875 17.46L7.5 16.5ZM4.875 16.125H3.375L16.875 2.625H18.375L4.875 16.125Z" fill="#FFEFCA" fill-opacity="0.4"/>
<path d="M22.875 15.75C22.875 15.8495 22.8355 15.9448 22.7652 16.0152C22.6948 16.0855 22.5995 16.125 22.5 16.125H19.2488C19.2488 16.125 19.5 17.625 19.875 19.125C18 19.5 15.75 16.125 15.75 16.125H5.25C4.95163 16.125 4.66548 16.0065 4.4545 15.7955C4.24353 15.5845 4.125 15.2984 4.125 15V14.25H21.375C21.7728 14.25 22.1544 14.408 22.4357 14.6893C22.717 14.9706 22.875 15.3522 22.875 15.75Z" fill="#FF8E5A"/>
<path d="M11.25 19.125H7.125C7.125 19.125 5.625 22.125 3.75 21.75C4.125 20.25 4.37625 19.125 4.37625 19.125H2.25C1.95163 19.125 1.66548 19.0065 1.4545 18.7955C1.24353 18.5845 1.125 18.2984 1.125 18V10.5C1.125 10.2016 1.24353 9.91548 1.4545 9.7045C1.66548 9.49353 1.95163 9.375 2.25 9.375H11.25C11.5484 9.375 11.8345 9.49353 12.0455 9.7045C12.2565 9.91548 12.375 10.2016 12.375 10.5V18C12.375 18.2984 12.2565 18.5845 12.0455 18.7955C11.8345 19.0065 11.5484 19.125 11.25 19.125Z" fill="#64DDB8"/>
<path d="M7.125 11.25H6.375C5.87772 11.25 5.40081 11.4475 5.04917 11.7992C4.69754 12.1508 4.5 12.6277 4.5 13.125V15.375C4.5 15.8723 4.69754 16.3492 5.04917 16.7008C5.40081 17.0525 5.87772 17.25 6.375 17.25H7.125C7.30702 17.2478 7.48772 17.2187 7.66125 17.1638L7.90125 17.7637C7.93805 17.8562 8.01008 17.9303 8.10151 17.9697C8.19293 18.0091 8.29626 18.0105 8.38875 17.9738C8.48124 17.937 8.55533 17.8649 8.59471 17.7735C8.6341 17.6821 8.63555 17.5787 8.59875 17.4863L8.325 16.8038C8.53472 16.6291 8.70377 16.4107 8.82036 16.164C8.93695 15.9172 8.99826 15.6479 9 15.375V13.125C9 12.8788 8.9515 12.635 8.85727 12.4075C8.76305 12.18 8.62494 11.9733 8.45083 11.7992C8.27672 11.6251 8.07002 11.487 7.84253 11.3927C7.61505 11.2985 7.37123 11.25 7.125 11.25ZM7.84875 15.6113C7.81195 15.5188 7.73992 15.4447 7.64849 15.4053C7.55707 15.3659 7.45374 15.3645 7.36125 15.4012C7.26876 15.438 7.19467 15.5101 7.15529 15.6015C7.1159 15.6929 7.11445 15.7963 7.15125 15.8887L7.38375 16.4662C7.2991 16.4875 7.21227 16.4988 7.125 16.5H6.375C6.07663 16.5 5.79048 16.3815 5.5795 16.1705C5.36853 15.9595 5.25 15.6734 5.25 15.375V13.125C5.25 12.8266 5.36853 12.5405 5.5795 12.3295C5.79048 12.1185 6.07663 12 6.375 12H7.125C7.42337 12 7.70952 12.1185 7.9205 12.3295C8.13147 12.5405 8.25 12.8266 8.25 13.125V15.375C8.24811 15.6176 8.16787 15.853 8.02125 16.0463L7.84875 15.6113Z" fill="#2F3D3F"/>
<path d="M22.125 2.25H4.875C4.57663 2.25 4.29048 2.36853 4.0795 2.5795C3.86853 2.79048 3.75 3.07663 3.75 3.375V9H1.875C1.57663 9 1.29048 9.11853 1.0795 9.3295C0.868526 9.54048 0.75 9.82663 0.75 10.125V18.375C0.75 18.6734 0.868526 18.9595 1.0795 19.1705C1.29048 19.3815 1.57663 19.5 1.875 19.5H3.82875C3.85927 20.228 3.71257 20.9525 3.40125 21.6112C3.37858 21.6682 3.3702 21.7298 3.37685 21.7907C3.38349 21.8516 3.40496 21.9099 3.43937 21.9606C3.47378 22.0113 3.52009 22.0528 3.57424 22.0815C3.62839 22.1101 3.68873 22.1251 3.75 22.125H3.8025C4.53791 22.0483 5.23511 21.7593 5.80909 21.2932C6.38307 20.8271 6.80902 20.204 7.035 19.5H11.625C11.9234 19.5 12.2095 19.3815 12.4205 19.1705C12.6315 18.9595 12.75 18.6734 12.75 18.375V16.5H15.5025C15.8175 17.1525 16.8975 18.8475 19.7925 19.5H19.875C19.9412 19.5 20.0062 19.4825 20.0634 19.4492C20.1206 19.4159 20.168 19.3681 20.2008 19.3106C20.2335 19.2531 20.2505 19.1879 20.2499 19.1217C20.2493 19.0555 20.2313 18.9907 20.1975 18.9338C19.4888 17.7525 19.4212 16.9012 19.4475 16.5H22.125C22.4234 16.5 22.7095 16.3815 22.9205 16.1705C23.1315 15.9595 23.25 15.6734 23.25 15.375V3.375C23.25 3.07663 23.1315 2.79048 22.9205 2.5795C22.7095 2.36853 22.4234 2.25 22.125 2.25ZM12 18.375C12 18.4745 11.9605 18.5698 11.8902 18.6402C11.8198 18.7105 11.7245 18.75 11.625 18.75H6.75C6.66066 18.7487 6.5738 18.7793 6.50505 18.8364C6.4363 18.8935 6.39018 18.9732 6.375 19.0613C6.25806 19.5732 6.00667 20.0446 5.64675 20.4269C5.28683 20.8093 4.83142 21.0886 4.3275 21.2362C4.8 19.7362 4.49625 19.0387 4.455 18.9562C4.42413 18.895 4.37703 18.8433 4.31885 18.807C4.26066 18.7706 4.19361 18.7509 4.125 18.75H1.875C1.77554 18.75 1.68016 18.7105 1.60984 18.6402C1.53951 18.5698 1.5 18.4745 1.5 18.375V10.125C1.5 10.0255 1.53951 9.93016 1.60984 9.85983C1.68016 9.78951 1.77554 9.75 1.875 9.75H11.625C11.7245 9.75 11.8198 9.78951 11.8902 9.85983C11.9605 9.93016 12 10.0255 12 10.125V18.375ZM22.5 15.375C22.5 15.4745 22.4605 15.5698 22.3902 15.6402C22.3198 15.7105 22.2245 15.75 22.125 15.75H19.125C19.0464 15.7498 18.9697 15.7743 18.9058 15.8201C18.8418 15.8658 18.7939 15.9305 18.7687 16.005C18.7687 16.05 18.4575 16.9912 19.1437 18.5325C16.7212 17.7112 16.1438 16.08 16.1063 16.005C16.0811 15.9305 16.0332 15.8658 15.9692 15.8201C15.9053 15.7743 15.8286 15.7498 15.75 15.75H12.75V10.125C12.7492 9.92904 12.6972 9.73668 12.5992 9.56699C12.5012 9.39729 12.3606 9.25613 12.1912 9.1575L13.5 5.88375L15.345 10.5H13.875C13.7755 10.5 13.6802 10.5395 13.6098 10.6098C13.5395 10.6802 13.5 10.7755 13.5 10.875C13.5 10.9745 13.5395 11.0698 13.6098 11.1402C13.6802 11.2105 13.7755 11.25 13.875 11.25H15.645L16.1512 12.5138C16.188 12.6062 16.2601 12.6803 16.3515 12.7197C16.4429 12.7591 16.5463 12.7605 16.6388 12.7238C16.7312 12.687 16.8053 12.6149 16.8447 12.5235C16.8841 12.4321 16.8855 12.3287 16.8488 12.2362L13.8488 4.73625C13.8211 4.6663 13.7731 4.60629 13.7109 4.56399C13.6487 4.5217 13.5752 4.49908 13.5 4.49908C13.4248 4.49908 13.3513 4.5217 13.2891 4.56399C13.2269 4.60629 13.1789 4.6663 13.1512 4.73625L11.445 9H4.5V3.375C4.5 3.27554 4.53951 3.18016 4.60984 3.10984C4.68016 3.03951 4.77554 3 4.875 3H22.125C22.2245 3 22.3198 3.03951 22.3902 3.10984C22.4605 3.18016 22.5 3.27554 22.5 3.375V15.375Z" fill="#2F3D3F"/>
<path d="M21.375 13.5C21.2755 13.5 21.1802 13.5395 21.1098 13.6098C21.0395 13.6802 21 13.7755 21 13.875V14.625C21 14.7245 21.0395 14.8198 21.1098 14.8902C21.1802 14.9605 21.2755 15 21.375 15C21.4745 15 21.5698 14.9605 21.6402 14.8902C21.7105 14.8198 21.75 14.7245 21.75 14.625V13.875C21.75 13.7755 21.7105 13.6802 21.6402 13.6098C21.5698 13.5395 21.4745 13.5 21.375 13.5ZM19.5 13.5C19.4005 13.5 19.3052 13.5395 19.2348 13.6098C19.1645 13.6802 19.125 13.7755 19.125 13.875V14.625C19.125 14.7245 19.1645 14.8198 19.2348 14.8902C19.3052 14.9605 19.4005 15 19.5 15C19.5995 15 19.6948 14.9605 19.7652 14.8902C19.8355 14.8198 19.875 14.7245 19.875 14.625V13.875C19.875 13.7755 19.8355 13.6802 19.7652 13.6098C19.6948 13.5395 19.5995 13.5 19.5 13.5ZM17.625 13.5C17.5255 13.5 17.4302 13.5395 17.3598 13.6098C17.2895 13.6802 17.25 13.7755 17.25 13.875V14.625C17.25 14.7245 17.2895 14.8198 17.3598 14.8902C17.4302 14.9605 17.5255 15 17.625 15C17.7245 15 17.8198 14.9605 17.8902 14.8902C17.9605 14.8198 18 14.7245 18 14.625V13.875C18 13.7755 17.9605 13.6802 17.8902 13.6098C17.8198 13.5395 17.7245 13.5 17.625 13.5ZM15.75 13.5C15.6505 13.5 15.5552 13.5395 15.4848 13.6098C15.4145 13.6802 15.375 13.7755 15.375 13.875V14.625C15.375 14.7245 15.4145 14.8198 15.4848 14.8902C15.5552 14.9605 15.6505 15 15.75 15C15.8495 15 15.9448 14.9605 16.0152 14.8902C16.0855 14.8198 16.125 14.7245 16.125 14.625V13.875C16.125 13.7755 16.0855 13.6802 16.0152 13.6098C15.9448 13.5395 15.8495 13.5 15.75 13.5ZM13.875 13.5C13.7755 13.5 13.6802 13.5395 13.6098 13.6098C13.5395 13.6802 13.5 13.7755 13.5 13.875V14.625C13.5 14.7245 13.5395 14.8198 13.6098 14.8902C13.6802 14.9605 13.7755 15 13.875 15C13.9745 15 14.0698 14.9605 14.1402 14.8902C14.2105 14.8198 14.25 14.7245 14.25 14.625V13.875C14.25 13.7755 14.2105 13.6802 14.1402 13.6098C14.0698 13.5395 13.9745 13.5 13.875 13.5Z" fill="#FFF2A7"/>
<path d="M19.4091 11.1818L19.9727 12.2091L21 12.7727L19.9727 13.3364L19.4091 14.3636L18.8455 13.3364L17.8182 12.7727L18.8455 12.2091L19.4091 11.1818ZM16.1 4L16.4864 4.70909L17.2 5.1L16.4864 5.48636L16.1 6.2L15.7091 5.48636L15 5.1L15.7091 4.70909L16.1 4Z" fill="#FFF8F8"/>
</svg>
