<svg width="20" height="20" viewBox="0 0 20 20" fill="none" xmlns="http://www.w3.org/2000/svg">
<path d="M13.3711 9.35133C13.3711 10.1637 13.055 10.9428 12.4924 11.5172C11.9298 12.0917 11.1667 12.4144 10.3711 12.4144C9.57544 12.4144 8.81238 12.0917 8.24977 11.5172C7.68716 10.9428 7.37109 10.1637 7.37109 9.35133V5.06306C7.37109 4.25068 7.68716 3.47158 8.24977 2.89714C8.81238 2.32271 9.57544 2 10.3711 2C11.1667 2 11.9298 2.32271 12.4924 2.89714C13.055 3.47158 13.3711 4.25068 13.3711 5.06306V9.35133Z" fill="#DEF5F9"/>
<path d="M13.3711 9.35133C13.3711 10.1637 13.055 10.9428 12.4924 11.5172C11.9298 12.0917 11.1667 12.4144 10.3711 12.4144C9.57544 12.4144 8.81238 12.0917 8.24977 11.5172C7.68716 10.9428 7.37109 10.1637 7.37109 9.35133V5.06306C7.37109 4.25068 7.68716 3.47158 8.24977 2.89714C8.81238 2.32271 9.57544 2 10.3711 2C11.1667 2 11.9298 2.32271 12.4924 2.89714C13.055 3.47158 13.3711 4.25068 13.3711 5.06306V9.35133Z" stroke="#131313" stroke-linecap="round" stroke-linejoin="round"/>
<path d="M16.3711 9.2334C16.3726 9.9579 16.234 10.6756 15.9633 11.3452C15.6925 12.0149 15.2948 12.6233 14.793 13.1356C14.2912 13.6479 13.6953 14.054 13.0395 14.3304C12.3836 14.607 11.6807 14.7485 10.9711 14.7469H9.7711C9.06152 14.7485 8.35862 14.607 7.70275 14.3304C7.04688 14.054 6.45096 13.6479 5.9492 13.1356C5.44745 12.6233 5.04975 12.0149 4.77894 11.3452C4.50812 10.6756 4.36952 9.9579 4.37111 9.2334" stroke="#131313" stroke-linecap="round" stroke-linejoin="round"/>
<path d="M10.3711 16.5498V19.0002" stroke="#131313" stroke-linecap="round" stroke-linejoin="round"/>
</svg>
