<svg width="189" height="211" viewBox="0 0 189 211" fill="none" xmlns="http://www.w3.org/2000/svg">
<path d="M79.9509 94.1465C79.9509 94.1465 49.9427 100.194 40.0412 103.63C30.1396 107.065 27.4322 126.658 45.4383 127.553C63.4443 128.448 90.977 122.859 90.977 122.859L79.9509 94.1465Z" fill="white" stroke="#131313" stroke-width="1.39" stroke-miterlimit="10"/>
<path d="M19.8156 40.8115C12.4133 40.3761 9.78317 46.4001 13.1571 48.6427C16.531 50.8853 18.3935 52.2512 22.2375 54.8516C26.0815 57.4521 28.063 53.11 24.4272 50.1696C22.2939 48.4606 20.2726 46.6158 18.3756 44.6466" fill="white"/>
<path d="M19.8156 40.8115C12.4133 40.3761 9.78317 46.4001 13.1571 48.6427C16.531 50.8853 18.3935 52.2512 22.2375 54.8516C26.0815 57.4521 28.063 53.11 24.4272 50.1696C22.2939 48.4606 20.2726 46.6158 18.3756 44.6466" stroke="#131313" stroke-width="1.39" stroke-miterlimit="10"/>
<path d="M22.3981 37.2406C14.9898 36.8112 12.3597 42.8292 15.7336 45.0778C19.1075 47.3264 20.9759 48.6564 24.814 51.2808C28.652 53.9051 30.6395 49.5451 27.0037 46.6047C24.8629 44.8936 22.8336 43.0468 20.9283 41.0757" fill="white"/>
<path d="M22.3981 37.2406C14.9898 36.8112 12.3597 42.8292 15.7336 45.0778C19.1075 47.3264 20.9759 48.6564 24.814 51.2808C28.652 53.9051 30.6395 49.5451 27.0037 46.6047C24.8629 44.8936 22.8336 43.0468 20.9283 41.0757" stroke="#131313" stroke-width="1.39" stroke-miterlimit="10"/>
<path d="M23.5764 32.9385C16.174 32.5031 13.5439 38.5211 16.9178 40.7697C20.2917 43.0183 22.1542 44.3483 25.9982 46.9727C29.8422 49.597 31.8237 45.237 28.182 42.2966C26.0469 40.5853 24.0217 38.7406 22.1185 36.7736" fill="white"/>
<path d="M23.5764 32.9385C16.174 32.5031 13.5439 38.5211 16.9178 40.7697C20.2917 43.0183 22.1542 44.3483 25.9982 46.9727C29.8422 49.597 31.8237 45.237 28.182 42.2966C26.0469 40.5853 24.0217 38.7406 22.1185 36.7736" stroke="#131313" stroke-width="1.39" stroke-miterlimit="10"/>
<path d="M35.0488 31.7579C23.4157 27.8751 12.4371 23.038 7.67676 21.5469C7.67676 21.5469 5.06451 26.8552 11.5564 29.2409C18.0484 31.6267 29.5387 36.5056 29.5387 36.5056" fill="white"/>
<path d="M35.0488 31.7579C23.4157 27.8751 12.4371 23.038 7.67676 21.5469C7.67676 21.5469 5.06451 26.8552 11.5564 29.2409C18.0484 31.6267 29.5387 36.5056 29.5387 36.5056" stroke="#131313" stroke-width="1.39" stroke-miterlimit="10"/>
<path d="M34.43 54.9723C34.43 54.9723 34.6561 87.4723 30.7942 110.662C29.3364 119.429 36.2984 126.169 43.9328 127.493C45.8832 127.874 47.8926 127.826 49.8228 127.353C51.753 126.881 53.558 125.995 55.1137 124.756C58.4043 122.054 60.7964 117.372 61.1832 110.226C61.3022 108.008 61.3439 105.777 61.326 103.546C60.9987 71.9351 47.3186 40.1747 47.3186 40.1747C47.3186 40.1747 45.7656 33.9121 39.2915 32.6298C30.4015 30.8405 21.7317 36.2084 16.0431 40.9799C20.381 44.2961 23.6537 43.0436 28.6461 39.4113C26.9027 46.3121 33.7219 48.0954 33.7219 48.0954" fill="white"/>
<path d="M34.43 54.9723C34.43 54.9723 34.6561 87.4723 30.7942 110.662C29.3364 119.429 36.2984 126.169 43.9328 127.493C45.8832 127.874 47.8926 127.826 49.8228 127.353C51.753 126.881 53.558 125.995 55.1137 124.756C58.4043 122.054 60.7964 117.372 61.1832 110.226C61.3022 108.008 61.3439 105.777 61.326 103.546C60.9987 71.9351 47.3186 40.1747 47.3186 40.1747C47.3186 40.1747 45.7656 33.9121 39.2915 32.6298C30.4015 30.8405 21.7317 36.2084 16.0431 40.9799C20.381 44.2961 23.6537 43.0436 28.6461 39.4113C26.9027 46.3121 33.7219 48.0954 33.7219 48.0954" stroke="#131313" stroke-width="1.39" stroke-miterlimit="10"/>
<path d="M24.1774 50.8496C24.1774 50.8496 28.545 54.0227 33.0078 54.7921C37.4707 55.5615 40.1484 54.3149 40.1484 54.3149" fill="white"/>
<path d="M24.1774 50.8496C24.1774 50.8496 28.545 54.0227 33.0078 54.7921C37.4707 55.5615 40.1484 54.3149 40.1484 54.3149" stroke="#131313" stroke-width="1.39" stroke-miterlimit="10"/>
<path d="M123.175 81.848C135.32 67.4678 149.048 76.2653 149.274 92.2857C149.5 108.306 158.979 155.681 158.979 155.681C158.979 155.681 149.898 173.729 121.241 175.757C92.5837 177.785 85.3777 167.86 85.3777 167.86C85.3777 167.86 77.7136 112.815 79.9688 97.4806C82.224 82.1462 94.0356 83.9415 96.6836 88.4565L123.175 81.848Z" fill="#63D882" stroke="#131313" stroke-width="1.39" stroke-miterlimit="10"/>
<path d="M91.7031 85.3848C91.7031 85.3848 84.6994 96.5978 91.4055 106.123C96.8918 113.918 114.612 111.133 121.217 99.6039" stroke="#131313" stroke-width="1.39" stroke-miterlimit="10"/>
<path d="M126.317 90.7821C126.317 90.7821 130.048 85.8316 129.084 76.6465" stroke="#131313" stroke-width="1.39" stroke-miterlimit="10"/>
<path d="M103.509 110.447C103.509 110.447 104.104 121.463 104.859 136.655" stroke="#131313" stroke-width="1.39" stroke-miterlimit="10"/>
<path d="M87.5734 85.6875C69.365 90.7811 65.9316 97.1093 65.9316 97.1093L72.5188 129.961L84.1698 127.909" fill="#63D882"/>
<path d="M87.5734 85.6875C69.365 90.7811 65.9316 97.1093 65.9316 97.1093L72.5188 129.961L84.1698 127.909" stroke="#131313" stroke-width="1.39" stroke-miterlimit="10"/>
<path d="M154.028 159.939L143.02 158.609C143.02 158.609 133.237 157.881 127.703 157.505C122.169 157.13 120.348 146.984 134.314 147.766C142.561 148.177 150.511 152.263 154.028 159.939Z" fill="white" stroke="#131313" stroke-width="1.39" stroke-miterlimit="10"/>
<path d="M92.1909 133.844L132.904 124.45C133.416 124.33 133.946 124.313 134.464 124.402C134.983 124.49 135.478 124.681 135.921 124.964C136.365 125.247 136.747 125.615 137.047 126.048C137.346 126.482 137.556 126.97 137.664 127.486L149.238 182.185C149.348 182.7 149.354 183.231 149.256 183.748C149.158 184.265 148.958 184.758 148.667 185.196C148.377 185.635 148.002 186.01 147.564 186.301C147.127 186.593 146.636 186.793 146.12 186.891L103.753 195.015C103.242 195.112 102.717 195.108 102.208 195.002C101.699 194.895 101.216 194.69 100.786 194.396C100.357 194.102 99.9892 193.727 99.7049 193.29C99.4205 192.854 99.2249 192.366 99.1291 191.853L89.2038 138.424C89.0179 137.422 89.2247 136.387 89.7811 135.534C90.3374 134.681 91.2006 134.075 92.1909 133.844Z" fill="white" stroke="#131313" stroke-width="1.39" stroke-miterlimit="10"/>
<path d="M99.6051 139.302L128.59 132.067C128.966 131.986 129.354 131.983 129.732 132.058C130.109 132.133 130.467 132.285 130.783 132.504C131.1 132.723 131.369 133.005 131.573 133.332C131.777 133.658 131.912 134.024 131.97 134.405L140.211 176.501C140.384 177.277 140.249 178.089 139.835 178.766C139.421 179.443 138.759 179.931 137.991 180.128L107.805 186.378C107.428 186.444 107.043 186.432 106.671 186.344C106.299 186.255 105.949 186.093 105.642 185.865C105.334 185.638 105.076 185.351 104.882 185.021C104.688 184.691 104.563 184.325 104.514 183.945L97.4511 142.827C97.3025 142.075 97.4417 141.295 97.8408 140.642C98.24 139.989 98.8699 139.51 99.6051 139.302Z" fill="white" stroke="#131313" stroke-width="1.39" stroke-miterlimit="10"/>
<path d="M160.764 165.283C152.814 156.713 146.257 158.311 146.257 158.311C138.902 158.311 142.407 173.001 145.007 181.524C147.607 190.047 158.937 189.743 166.429 187.238C174.938 184.387 183.334 174.23 190.088 161.621C196.841 149.013 205.696 130.577 198.192 119.811C190.516 108.83 166.381 92.0586 166.381 92.0586L149.315 119.137L175.426 136.66C175.426 136.66 165.286 157.667 160.764 165.283Z" fill="white" stroke="#131313" stroke-width="1.39" stroke-miterlimit="10"/>
<path d="M153.475 159.211C148.976 152.143 133.243 152.835 126.466 155.632C119.688 158.43 120.896 164.173 127.965 162.676C135.034 161.179 145.775 161.227 148.197 166.255" fill="white"/>
<path d="M153.475 159.211C148.976 152.143 133.243 152.835 126.466 155.632C119.688 158.43 120.896 164.173 127.965 162.676C135.034 161.179 145.775 161.227 148.197 166.255" stroke="#131313" stroke-width="1.39" stroke-miterlimit="10"/>
<path d="M153.475 163.869C148.976 156.801 133.243 157.493 126.466 160.29C119.688 163.088 120.914 168.814 127.965 167.311C135.016 165.808 145.775 165.861 148.197 170.889" fill="white"/>
<path d="M153.475 163.869C148.976 156.801 133.243 157.493 126.466 160.29C119.688 163.088 120.914 168.814 127.965 167.311C135.016 165.808 145.775 165.861 148.197 170.889" stroke="#131313" stroke-width="1.39" stroke-miterlimit="10"/>
<path d="M154.659 171.545C150.16 164.477 134.427 165.169 127.65 167.966C120.872 170.764 122.098 176.489 129.149 174.986C136.201 173.483 146.959 173.537 149.381 178.565" fill="white"/>
<path d="M154.659 171.545C150.16 164.477 134.427 165.169 127.65 167.966C120.872 170.764 122.098 176.489 129.149 174.986C136.201 173.483 146.959 173.537 149.381 178.565" stroke="#131313" stroke-width="1.39" stroke-miterlimit="10"/>
<path d="M156.004 179.413C151.499 172.339 135.772 173.031 128.994 175.834C122.217 178.637 123.443 184.363 130.494 182.86C137.545 181.357 148.298 181.411 150.726 186.439" fill="white"/>
<path d="M156.004 179.413C151.499 172.339 135.772 173.031 128.994 175.834C122.217 178.637 123.443 184.363 130.494 182.86C137.545 181.357 148.298 181.411 150.726 186.439" stroke="#131313" stroke-width="1.39" stroke-miterlimit="10"/>
<path d="M135.54 74.5882C151.838 73.109 170.88 92.0578 170.88 92.0578L151.41 125.303L132.844 113.041" fill="#63D882"/>
<path d="M135.54 74.5882C151.838 73.109 170.88 92.0578 170.88 92.0578L151.41 125.303L132.844 113.041" stroke="#131313" stroke-width="1.39" stroke-miterlimit="10"/>
<path d="M99.1351 130.643L105.109 158.365L130.321 153.325L124.615 124.762L99.1351 130.643Z" fill="#FC7B3E" stroke="#131313" stroke-width="1.39" stroke-miterlimit="10"/>
<path d="M73.4887 56.0876C73.3042 48.9661 76.2021 44.6539 76.2021 44.6539C76.2021 31.2579 78.8798 17.7128 96.9037 16.7823C111.464 16.0308 121.217 27.7449 121.217 41.1468V52.5806C121.217 59.207 112.113 74.5355 95.7077 74.5355C79.3023 74.5355 73.685 63.5073 73.4887 56.0876Z" fill="white" stroke="#131313" stroke-width="1.39" stroke-miterlimit="10"/>
<path d="M113.41 40.9445C113.41 40.9445 116.903 34.2464 121.312 37.2167C125.722 40.187 123.514 57.7938 114.41 53.7798" fill="white"/>
<path d="M113.41 40.9445C113.41 40.9445 116.903 34.2464 121.312 37.2167C125.722 40.187 123.514 57.7938 114.41 53.7798" stroke="#131313" stroke-width="1.39" stroke-miterlimit="10"/>
<path d="M116.731 47.5633C116.731 47.5633 116.832 42.7143 120.033 41.748L116.731 47.5633Z" fill="white"/>
<path d="M116.731 47.5633C116.731 47.5633 116.832 42.7143 120.033 41.748" stroke="#131313" stroke-width="1.39" stroke-miterlimit="10"/>
<path d="M82.0037 22.9423C86.8533 17.6817 97.1298 22.6441 96.9453 31.6682C96.7608 40.6923 107.561 41.748 107.561 41.748V47.5633H112.059L114.582 39.2131C114.582 39.2131 117.516 34.8114 121.312 37.2389C127.215 27.4812 118.45 23.2703 118.45 23.2703C118.45 23.2703 108.436 4.1843 89.7036 11.6935C70.9716 19.2026 77.3921 32.372 77.3921 32.372C77.3921 32.372 77.1482 28.1969 82.0037 22.9423Z" fill="#131313" stroke="#131313" stroke-width="1.39" stroke-miterlimit="10"/>
<path d="M86.175 39.2129C86.175 39.2129 89.2514 41.8849 84.3007 52.5671C83.2772 54.774 88.8051 58.5792 90.9771 54.2193" fill="white"/>
<path d="M86.175 39.2129C86.175 39.2129 89.2514 41.8849 84.3007 52.5671C83.2772 54.774 88.8051 58.5792 90.9771 54.2193" stroke="#131313" stroke-width="1.39" stroke-miterlimit="10"/>
<path d="M82.2061 42.5117H81.8014C81.0686 42.5117 80.4745 43.1072 80.4745 43.8418V45.2315C80.4745 45.9661 81.0686 46.5615 81.8014 46.5615H82.2061C82.9389 46.5615 83.533 45.9661 83.533 45.2315V43.8418C83.533 43.1072 82.9389 42.5117 82.2061 42.5117Z" fill="#131313"/>
<path d="M76.7198 37.8891C77.7314 35.7837 81.5992 35.3304 83.1701 37.5491" stroke="#131313" stroke-width="1.39" stroke-miterlimit="10"/>
<path d="M98.6769 42.5117H98.2723C97.5394 42.5117 96.9453 43.1072 96.9453 43.8418V45.2315C96.9453 45.9661 97.5394 46.5615 98.2723 46.5615H98.6769C99.4097 46.5615 100.004 45.9661 100.004 45.2315V43.8418C100.004 43.1072 99.4097 42.5117 98.6769 42.5117Z" fill="#131313"/>
<path d="M93.7142 38.2602C94.7318 36.1547 98.5936 35.7015 100.17 37.9202" stroke="#131313" stroke-width="1.39" stroke-miterlimit="10"/>
<path d="M92.3337 62.3555C92.3337 62.3555 99.4743 64.0852 103.515 55.5859L92.3337 62.3555Z" fill="white"/>
<path d="M92.3337 62.3555C92.3337 62.3555 99.4743 64.0852 103.515 55.5859" stroke="#131313" stroke-width="1.39" stroke-miterlimit="10"/>
<path d="M115.54 62.4746L123.199 81.8231C123.199 81.8231 123.044 92.213 109.007 99.0303C94.9698 105.848 96.7549 93.0659 96.7549 93.0659V74.5167C96.7549 74.5167 103.854 74.3318 108.019 69.5007" fill="white"/>
<path d="M115.54 62.4746L123.199 81.8231C123.199 81.8231 123.044 92.213 109.007 99.0303C94.9698 105.848 96.7549 93.0659 96.7549 93.0659V74.5167C96.7549 74.5167 103.854 74.3318 108.019 69.5007" stroke="#131313" stroke-width="1.39" stroke-miterlimit="10"/>
<path d="M93.6547 0.367759L59.7371 17.3603C59.0744 17.689 58.5353 18.2235 58.2 18.8841C57.8647 19.5446 57.7511 20.2961 57.8761 21.0266C58.0011 21.7571 58.3581 22.4276 58.8939 22.9384C59.4297 23.4492 60.1157 23.7729 60.8499 23.8615L96.3681 28.3049C96.9322 28.3736 97.5044 28.3019 98.0342 28.0962L133.273 14.4676C133.965 14.2001 134.553 13.7154 134.948 13.0858C135.343 12.4561 135.524 11.7153 135.464 10.9739C135.405 10.2326 135.108 9.53037 134.617 8.9722C134.127 8.41403 133.469 8.02982 132.743 7.87692L95.904 0.0755011C95.1429 -0.0877016 94.3491 0.01545 93.6547 0.367759Z" fill="#131313"/>
<path d="M129.227 14.1641C129.227 14.1641 132.85 42.0595 150.404 44.654" stroke="#131313" stroke-width="1.39" stroke-miterlimit="10"/>
<path d="M156.182 53.0935C159.784 53.0935 162.704 50.1668 162.704 46.5565C162.704 42.9462 159.784 40.0195 156.182 40.0195C152.58 40.0195 149.66 42.9462 149.66 46.5565C149.66 50.1668 152.58 53.0935 156.182 53.0935Z" fill="#FC7B3E" stroke="#131313" stroke-width="1.39" stroke-miterlimit="10"/>
<path d="M189.403 62.4752C189.408 64.0222 188.955 65.5358 188.101 66.8246C187.247 68.1133 186.031 69.1193 184.607 69.7151C183.183 70.3109 181.614 70.4699 180.1 70.1718C178.585 69.8738 177.193 69.1321 176.099 68.0407C175.005 66.9493 174.259 65.5572 173.955 64.0406C173.65 62.5239 173.802 60.9509 174.39 59.5205C174.977 58.0901 175.975 56.8667 177.257 56.005C178.539 55.1433 180.047 54.6821 181.59 54.6797C183.657 54.6765 185.641 55.4957 187.106 56.9573C188.571 58.4189 189.397 60.4034 189.403 62.4752Z" fill="white" stroke="#131313" stroke-width="1.39" stroke-miterlimit="10"/>
<path d="M181.59 62.4746C181.59 62.4746 191.706 15.6303 153.463 9.89258" stroke="#131313" stroke-width="1.39" stroke-miterlimit="10"/>
<path d="M191.706 91.4371C191.478 91.7919 191.15 92.071 190.763 92.2389C190.377 92.4068 189.949 92.4561 189.535 92.3806C189.12 92.305 188.737 92.1079 188.435 91.8143C188.132 91.5207 187.923 91.1437 187.834 90.7309C187.745 90.3182 187.78 89.8883 187.935 89.4955C188.089 89.1028 188.357 88.7648 188.703 88.5244C189.049 88.284 189.459 88.1519 189.88 88.1448C190.302 88.1378 190.715 88.256 191.07 88.4847C191.305 88.636 191.509 88.8327 191.669 89.0632C191.829 89.2938 191.941 89.5537 192.001 89.8281C192.06 90.1025 192.064 90.3859 192.014 90.662C191.963 90.9382 191.859 91.2016 191.706 91.4371Z" fill="#131313"/>
<path d="M54.7477 164.484C56.199 158.373 52.4332 152.24 46.3365 150.785C40.2398 149.331 34.1209 153.105 32.6696 159.216C31.2183 165.327 34.9841 171.461 41.0808 172.915C47.1775 174.37 53.2964 170.595 54.7477 164.484Z" fill="white" stroke="#131313" stroke-width="1.39" stroke-miterlimit="10"/>
<path d="M43.7186 161.859C43.7186 161.859 51.484 207.487 96.6776 209.574" stroke="#131313" stroke-width="1.39" stroke-miterlimit="10"/>
<path d="M16.8166 120.33C16.5058 120.618 16.1165 120.807 15.6982 120.872C15.2799 120.937 14.8517 120.876 14.4681 120.697C14.0846 120.517 13.7631 120.227 13.5448 119.863C13.3264 119.5 13.2211 119.079 13.2423 118.656C13.2634 118.232 13.4101 117.824 13.6635 117.484C13.9169 117.144 14.2656 116.888 14.6651 116.747C15.0646 116.607 15.4968 116.589 15.9065 116.696C16.3162 116.803 16.6848 117.03 16.9653 117.347C17.3343 117.765 17.5253 118.311 17.4975 118.869C17.4697 119.426 17.2253 119.951 16.8166 120.33Z" fill="#131313"/>
<path d="M24.094 128.44C23.781 128.723 23.3915 128.906 22.9747 128.967C22.5579 129.028 22.1325 128.963 21.7522 128.782C21.372 128.6 21.0539 128.31 20.8382 127.947C20.6226 127.585 20.519 127.166 20.5406 126.744C20.5623 126.323 20.7081 125.917 20.9597 125.578C21.2113 125.24 21.5574 124.984 21.9542 124.842C22.351 124.701 22.7808 124.68 23.1892 124.784C23.5976 124.887 23.9663 125.109 24.2487 125.422C24.4364 125.631 24.5813 125.874 24.6752 126.138C24.769 126.403 24.8099 126.683 24.7956 126.964C24.7812 127.244 24.7118 127.519 24.5914 127.772C24.471 128.025 24.302 128.253 24.094 128.44Z" fill="#131313"/>
<path d="M31.3773 136.53C31.0646 136.813 30.6751 136.997 30.258 137.058C29.841 137.12 29.4151 137.056 29.0343 136.874C28.6536 136.693 28.335 136.403 28.1191 136.04C27.9031 135.677 27.7994 135.258 27.8211 134.836C27.8427 134.414 27.9888 134.008 28.2408 133.669C28.4928 133.331 28.8395 133.074 29.2368 132.933C29.6341 132.792 30.0643 132.772 30.4729 132.876C30.8814 132.98 31.25 133.203 31.532 133.518C31.7196 133.725 31.8644 133.968 31.9582 134.232C32.0519 134.496 32.0928 134.776 32.0784 135.056C32.064 135.336 31.9947 135.61 31.8744 135.863C31.7541 136.116 31.5852 136.342 31.3773 136.53Z" fill="#131313"/>
<path d="M10.2175 126.342C9.90485 126.625 9.51532 126.809 9.09825 126.871C8.68117 126.932 8.25531 126.868 7.87455 126.687C7.49378 126.506 7.17526 126.215 6.95928 125.852C6.7433 125.489 6.63959 125.07 6.66127 124.649C6.68294 124.227 6.82902 123.82 7.08104 123.482C7.33305 123.143 7.67966 122.887 8.07699 122.746C8.47431 122.605 8.9045 122.585 9.31307 122.689C9.72165 122.793 10.0903 123.016 10.3722 123.33C10.7481 123.751 10.9427 124.304 10.9137 124.868C10.8847 125.432 10.6345 125.962 10.2175 126.342Z" fill="#131313"/>
<path d="M17.4712 134.43C17.1585 134.713 16.769 134.897 16.3519 134.959C15.9348 135.02 15.509 134.956 15.1282 134.775C14.7474 134.594 14.4289 134.303 14.2129 133.94C13.997 133.577 13.8933 133.158 13.9149 132.736C13.9366 132.314 14.0827 131.908 14.3347 131.57C14.5867 131.231 14.9333 130.975 15.3306 130.834C15.728 130.692 16.1582 130.673 16.5667 130.777C16.9753 130.881 17.3439 131.104 17.6259 131.418C18.0017 131.839 18.1963 132.392 18.1674 132.956C18.1384 133.52 17.8882 134.05 17.4712 134.43Z" fill="#131313"/>
<path d="M24.7486 142.522C24.4373 142.81 24.0475 142.998 23.6291 143.062C23.2107 143.127 22.7826 143.065 22.3995 142.884C22.0163 142.704 21.6955 142.413 21.4779 142.049C21.2603 141.685 21.1558 141.265 21.1778 140.841C21.1998 140.417 21.3472 140.009 21.6013 139.67C21.8554 139.331 22.2046 139.075 22.6043 138.935C23.0041 138.796 23.4363 138.779 23.8458 138.886C24.2552 138.994 24.6234 139.221 24.9033 139.54C25.273 139.958 25.4639 140.505 25.4349 141.063C25.406 141.621 25.1595 142.145 24.7486 142.522Z" fill="#131313"/>
<path d="M3.55907 132.336C3.2464 132.62 2.85687 132.804 2.4398 132.865C2.02273 132.926 1.59686 132.862 1.2161 132.681C0.835338 132.5 0.51681 132.209 0.300831 131.846C0.0848531 131.484 -0.0188561 131.065 0.00281866 130.643C0.0244934 130.221 0.170575 129.815 0.42259 129.476C0.674605 129.137 1.02121 128.881 1.41854 128.74C1.81586 128.599 2.24605 128.579 2.65463 128.683C3.0632 128.787 3.43181 129.01 3.71379 129.324C3.90135 129.532 4.04615 129.775 4.13991 130.039C4.23367 130.303 4.27454 130.583 4.26016 130.862C4.24579 131.142 4.17647 131.416 4.05616 131.669C3.93585 131.922 3.76692 132.149 3.55907 132.336Z" fill="#131313"/>
<path d="M10.8424 140.424C10.5297 140.707 10.1402 140.892 9.72314 140.953C9.30607 141.014 8.8802 140.95 8.49944 140.769C8.11868 140.588 7.80015 140.297 7.58417 139.934C7.3682 139.571 7.26447 139.153 7.28614 138.731C7.30782 138.309 7.45392 137.903 7.70593 137.564C7.95795 137.225 8.30456 136.969 8.70188 136.828C9.09921 136.687 9.52937 136.667 9.93795 136.771C10.3465 136.875 10.7151 137.098 10.9971 137.412C11.3744 137.832 11.57 138.385 11.541 138.95C11.512 139.515 11.2608 140.045 10.8424 140.424Z" fill="#131313"/>
<path d="M18.1257 148.517C17.8128 148.799 17.4233 148.982 17.0065 149.043C16.5897 149.104 16.1643 149.04 15.784 148.858C15.4037 148.677 15.0856 148.386 14.87 148.023C14.6543 147.661 14.5508 147.242 14.5724 146.821C14.594 146.399 14.7398 145.993 14.9914 145.655C15.243 145.316 15.5891 145.06 15.9859 144.918C16.3828 144.777 16.8126 144.757 17.2209 144.86C17.6293 144.963 17.998 145.185 18.2804 145.499C18.6581 145.92 18.8538 146.474 18.8248 147.04C18.7958 147.605 18.5445 148.136 18.1257 148.517Z" fill="#131313"/>
</svg>
